<svg xmlns="http://www.w3.org/2000/svg" width="287.925" height="269.184" viewBox="0 0 287.925 269.184">
  <g id="Group_443" data-name="Group 443" transform="translate(167.848 -584.915)">
    <g id="Blob" transform="matrix(0.995, 0.105, -0.105, 0.995, -142.456, 584.915)">
      <path id="Path_15" data-name="Path 15" d="M550.5,1365.041s-78.293,43.944-17.877,161.121,238.574,85.367,241.055-28.415c1.317-60.378-35.478-73.24-70.307-72.011-30.066,1.059-60.022-13.638-84.564-44.624C592.814,1350.079,565.605,1354.327,550.5,1365.041Z" transform="translate(-509.734 -1357.096)" fill="#ff5e76"/>
    </g>
    <path id="Path_658" data-name="Path 658" d="M1221.288,873.2c4.82,6.405,20.957,13.634,26.139,3.369,7.175-14.212-.717-22.748-3.612-26.747-5.077-7.111-11.816-19.348-23.011-12.083a14.872,14.872,0,0,0-6.549,10.244C1213.411,853.679,1213.717,863.138,1221.288,873.2Z" transform="matrix(0.848, -0.53, 0.53, 0.848, -1468.625, 567.096)" fill="#ff1e44"/>
  </g>
</svg>
