<svg xmlns="http://www.w3.org/2000/svg" width="299.278" height="297.924" viewBox="0 0 299.278 297.924">
  <g id="Blob" transform="matrix(-0.719, -0.695, 0.695, -0.719, 171.644, 297.924)">
    <path id="Path_20" data-name="Path 20" d="M673.266,1922.173q-6.556,15.742-13.13,31.476c-2.8,6.7-5.624,13.468-9.633,19.361-9.368,13.772-25.219,21.74-40.695,20.455-9.447-.784-18.483-4.759-26.75-9.907-11.759-7.322-22.187-17.022-32.013-27.285-11.726-12.247-22.912-25.724-29.412-42.1s-7.7-36.194.227-51.766c9.168-18.005,28.634-26.874,47.206-27.848s28.863,9.631,48.933,11.264c13.187-.122,19.8,1.79,60.6-27.259,31.264-17.566,51.152-5.1,62.509,7.185s12.551,24.538,13.678,38.287c1.3,15.907-5.851,31.749-16.628,42.3-11.441,11.2-28.728,16.83-42.244,9.37a21.272,21.272,0,0,0-7.532-2.592C683.489,1912.487,676.863,1913.534,673.266,1922.173Z" transform="translate(-516.329 -1809.864)" fill="#01bacc"/>
  </g>
</svg>
